<svg width="549" height="517" viewBox="0 0 549 517" fill="none" xmlns="http://www.w3.org/2000/svg">
<path d="M405 0C455.405 0 480.607 0.0001547 499.859 9.80957C516.794 18.4381 530.562 32.2062 539.19 49.1406C549 68.3927 549 93.5953 549 144V258.647C549 297.008 549 316.188 543.629 333.531C538.875 348.883 531.085 363.123 520.723 375.407C509.016 389.285 492.865 399.63 460.563 420.321L378.063 473.169C340.546 497.202 321.787 509.218 301.61 513.897C283.773 518.034 265.227 518.034 247.39 513.897C227.213 509.218 208.454 497.202 170.937 473.169L88.4365 420.321C56.1353 399.63 39.9843 389.285 28.2773 375.407C17.9149 363.123 10.1254 348.883 5.37109 333.531C-5.50184e-06 316.188 -3.16708e-06 297.008 0 258.647V144C4.1615e-06 93.5953 0.000158585 68.3927 9.80957 49.1406C18.4381 32.2062 32.2062 18.4381 49.1406 9.80957C68.3927 0.000158868 93.5953 0 144 0H405ZM274.5 81.7139C211.336 81.7139 148.171 88.3596 85.0068 101.65C77.9886 103.127 70.9694 104.685 63.9512 106.326C70.9694 107.967 77.9886 109.526 85.0068 111.003C148.171 124.294 211.336 130.939 274.5 130.939C337.664 130.939 400.829 124.294 463.993 111.003C471.012 109.526 478.031 107.967 485.049 106.326C478.031 104.685 471.011 103.127 463.993 101.65C400.829 88.3596 337.664 81.7139 274.5 81.7139Z" fill="black"/>
</svg>
